<svg width="205" height="49" viewBox="0 0 205 49" fill="none" xmlns="http://www.w3.org/2000/svg">
<path d="M34.7012 0H28.4236L0 48.1284H31.5624L32.2599 42.7226H9.5908L34.7012 0Z" fill="white"/>
<path d="M42.7228 7.32373H31.9114L28.7726 12.3807H33.4808L16.043 41.6762H22.495L42.7228 7.32373Z" fill="white"/>
<path d="M23.0181 7.14941L19.7049 12.5551H10.4629L11.6835 7.14941H23.0181Z" fill="white"/>
<path d="M62.3039 20.0642H58.873L55.0859 9.17529H58.2844L60.8247 16.7108L62.2497 12.5829L61.2738 9.17529H64.3717L66.3233 16.5172L68.8016 9.17529H72.0079L68.2208 20.0642H64.7899L63.5508 16.4785L62.3039 20.0642ZM75.8105 20.0642H72.8443V9.17529H75.8105V20.0642ZM80.7825 20.0642H77.8241V9.17529H80.7825L85.2589 15.309V9.17529H88.2328V20.0642H85.2589L80.7825 13.9227V20.0642ZM94.6763 20.0642H90.2464V9.17529H94.6763C98.084 9.17529 100.291 11.3515 100.291 14.612C100.291 17.8725 98.084 20.0642 94.6763 20.0642ZM93.2126 11.8317V17.4001H94.5989C96.1323 17.4001 97.2088 16.2461 97.2088 14.612C97.2088 12.9779 96.1323 11.8317 94.5989 11.8317H93.2126ZM107.06 20.312C103.691 20.312 101.298 17.9499 101.298 14.6197C101.298 11.2896 103.691 8.92746 107.06 8.92746C110.421 8.92746 112.822 11.2896 112.822 14.6197C112.822 17.9499 110.421 20.312 107.06 20.312ZM107.06 17.4465C108.624 17.4465 109.747 16.2771 109.747 14.6197C109.747 12.9547 108.624 11.7852 107.06 11.7852C105.496 11.7852 104.373 12.9547 104.373 14.6197C104.373 16.2771 105.496 17.4465 107.06 17.4465ZM120.017 20.0642H116.586L112.799 9.17529H115.997L118.537 16.7108L119.963 12.5829L118.987 9.17529H122.085L124.036 16.5172L126.514 9.17529H129.721L125.934 20.0642H122.503L121.264 16.4785L120.017 20.0642ZM133.516 20.0642H130.549V9.17529H137.279V11.8317H133.516V13.3187H137.086V15.8666H133.516V20.0642ZM141.857 20.0642H138.89V9.17529H141.857V20.0642ZM150.592 20.0642H143.87V9.17529H146.836V17.4078H150.592V20.0642ZM154.201 20.0642H151.227L152.583 9.17529H155.696L158.353 16.1067L161.001 9.17529H164.122L165.478 20.0642H162.504L161.838 14.0699L159.398 20.0642H157.307L154.867 14.0699L154.201 20.0642ZM169.853 20.0642H169.056L173.547 9.17529H174.337L178.837 20.0642H178.047L176.761 16.9431H171.131L169.853 20.0642ZM173.942 10.0117L171.34 16.3391H176.552L173.942 10.0117ZM181.238 20.0642H180.525V9.17529H181.238L189.13 18.918V9.17529H189.85V20.0642H189.13L181.238 10.3137V20.0642ZM196.704 20.0642H192.948V9.17529H196.704C199.895 9.17529 202.11 11.398 202.11 14.5965C202.11 17.8028 199.895 20.0642 196.704 20.0642ZM193.668 9.81034V19.4214H196.665C199.438 19.4214 201.382 17.4233 201.382 14.5965C201.382 11.7852 199.438 9.81034 196.665 9.81034H193.668ZM62.3039 39.0642H58.873L55.0859 28.1753H58.2844L60.8247 35.7108L62.2497 31.5829L61.2738 28.1753H64.3717L66.3233 35.5172L68.8016 28.1753H72.0079L68.2208 39.0642H64.7899L63.5508 35.4785L62.3039 39.0642ZM75.8027 39.0642H72.8365V28.1753H76.7476C79.4117 28.1753 80.6818 29.5461 80.6818 31.7378C80.6818 33.0312 80.0932 33.914 79.2801 34.4794L82.5715 39.0642H78.9161L76.4146 35.3003H75.8027V39.0642ZM75.8027 30.8394V32.6439H76.6934C77.2432 32.6439 77.7234 32.4038 77.7234 31.7378C77.7234 31.0873 77.3207 30.8394 76.6934 30.8394H75.8027ZM85.3054 39.0642H82.0991L86.2037 28.1753H89.41L93.5147 39.0642H90.3084L89.6578 37.1823H85.9559L85.3054 39.0642ZM87.8069 31.6061L86.6994 34.7582H88.9066L87.8069 31.6061ZM97.3637 39.0642H94.3975V28.1753H98.3086C100.942 28.1753 102.243 29.5306 102.243 31.7378C102.243 34.1928 100.609 35.3081 98.3086 35.3081H97.3637V39.0642ZM97.3637 30.8317V32.6439H98.2544C98.8352 32.6439 99.2844 32.3729 99.2844 31.7378C99.2844 31.1027 98.8894 30.8317 98.2544 30.8317H97.3637ZM106.781 39.0642H103.815V28.1753H107.726C110.359 28.1753 111.66 29.5306 111.66 31.7378C111.66 34.1928 110.026 35.3081 107.726 35.3081H106.781V39.0642ZM106.781 30.8317V32.6439H107.672C108.253 32.6439 108.702 32.3729 108.702 31.7378C108.702 31.1027 108.307 30.8317 107.672 30.8317H106.781ZM116.206 39.0642H113.24V28.1753H116.206V39.0642ZM121.178 39.0642H118.22V28.1753H121.178L125.655 34.309V28.1753H128.629V39.0642H125.655L121.178 32.9227V39.0642ZM135.901 39.312C132.524 39.312 130.139 36.9499 130.139 33.6197C130.139 30.2896 132.54 27.9275 135.901 27.9275C138.604 27.9275 140.71 29.4841 141.392 31.7843L138.449 32.6672C138.069 31.4125 137.07 30.7233 135.901 30.7233C134.336 30.7233 133.206 31.8462 133.206 33.6197C133.206 35.3933 134.336 36.5162 135.901 36.5162C137.334 36.5162 137.899 36.0593 138.124 35.5327H135.645V33.2945H141.523C141.523 37.2365 139.611 39.312 135.901 39.312ZM149.485 39.2888C147.2 39.2888 145.837 38.313 145.45 36.191L148.068 35.7805C148.292 36.6556 148.881 36.8647 149.485 36.8647C150.066 36.8647 150.407 36.5162 150.407 36.1445C150.407 35.7185 150.182 35.463 149.686 35.2074L147.696 34.1154C146.674 33.55 145.721 32.6517 145.721 31.1337C145.721 29.337 147.123 27.9507 149.5 27.9507C151.661 27.9507 152.993 29.1046 153.187 30.9091L150.569 31.3196C150.453 30.6303 150.043 30.3748 149.547 30.3748C149.036 30.3748 148.749 30.6613 148.749 30.9788C148.749 31.2886 148.927 31.459 149.469 31.7456L151.444 32.8375C152.645 33.4958 153.435 34.4329 153.435 36.0206C153.435 37.8793 152.087 39.2888 149.485 39.2888ZM160.173 39.0642H157.206V30.8317H153.977V28.1753H163.402V30.8317H160.173V39.0642ZM169.311 39.312C165.942 39.312 163.549 36.9499 163.549 33.6197C163.549 30.2896 165.942 27.9275 169.311 27.9275C172.672 27.9275 175.073 30.2896 175.073 33.6197C175.073 36.9499 172.672 39.312 169.311 39.312ZM169.311 36.4465C170.876 36.4465 171.999 35.2771 171.999 33.6197C171.999 31.9547 170.876 30.7852 169.311 30.7852C167.747 30.7852 166.624 31.9547 166.624 33.6197C166.624 35.2771 167.747 36.4465 169.311 36.4465ZM179.534 39.0642H176.568V28.1753H180.479C183.143 28.1753 184.413 29.5461 184.413 31.7378C184.413 33.0312 183.825 33.914 183.011 34.4794L186.303 39.0642H182.647L180.146 35.3003H179.534V39.0642ZM179.534 30.8394V32.6439H180.425C180.975 32.6439 181.455 32.4038 181.455 31.7378C181.455 31.0873 181.052 30.8394 180.425 30.8394H179.534ZM193.676 39.0642H186.946V28.1753H193.676V30.8317H189.912V32.3187H193.482V34.8666H189.912V36.4078H193.676V39.0642Z" fill="white"/>
<path d="M198.157 32.1613H197.86V29.1111H196.664V28.8406H199.352V29.1111H198.157V32.1613ZM200.077 32.1613H199.771L200.225 28.8406H200.53L201.761 31.69L202.987 28.8406H203.293L203.751 32.1613H203.441L203.079 29.3511L201.857 32.1613H201.661L200.439 29.3511L200.077 32.1613Z" fill="white"/>
</svg>
